<svg width="172" height="24" viewBox="0 0 172 24" fill="none" xmlns="http://www.w3.org/2000/svg">
<path d="M7.14025 10.0449L0.707413 16.4778L4.3195 20.0898L10.7523 13.6558V6.43284L4.3195 0L0.707413 3.61208L7.14025 10.0449Z" fill="#010101"/>
<path d="M27.7378 3.45743C26.8381 2.71846 25.7643 2.27045 24.5189 2.11218C24.0161 2.05253 23.3599 2.02209 22.5503 2.02209H17.3848V18.2259H22.5503C23.3685 18.2259 24.0246 18.1955 24.5189 18.1359C25.7716 17.9788 26.8466 17.5308 27.7426 16.7906C28.6387 16.0516 29.3192 15.1045 29.7855 13.9491C30.2505 12.7938 30.4831 11.518 30.4831 10.1228C30.4831 8.72764 30.2505 7.45178 29.7855 6.29645C29.3204 5.14112 28.6374 4.19397 27.7378 3.455V3.45743ZM27.2593 12.6063C27.0231 13.3757 26.6616 14.0246 26.1734 14.553C25.6852 15.0813 25.0741 15.4137 24.3387 15.5488C23.9492 15.6316 23.3526 15.673 22.5491 15.673H20.1411V4.57746H22.5491C22.8864 4.57746 23.2078 4.58476 23.5109 4.59937C23.814 4.61398 24.0904 4.64807 24.3375 4.70042C25.0655 4.83555 25.673 5.16182 26.16 5.67922C26.647 6.19662 27.011 6.84064 27.252 7.60883C27.4919 8.37824 27.6124 9.21582 27.6124 10.124C27.6124 11.0322 27.4943 11.8369 27.2581 12.6051L27.2593 12.6063Z" fill="#010101"/>
<path d="M41.3022 6.61421C40.4135 6.02863 39.3459 5.73645 38.1004 5.73645C36.855 5.73645 35.8665 6.00672 34.9546 6.54603C34.0428 7.08657 33.333 7.84989 32.8217 8.836C32.3116 9.82211 32.056 10.9726 32.056 12.2849C32.056 13.4999 32.3165 14.5859 32.8375 15.5428C33.3586 16.4996 34.0878 17.2423 35.0265 17.7706C35.9651 18.299 37.0413 18.5644 38.2563 18.5644C39.0366 18.5644 39.7793 18.4268 40.4841 18.1541C41.189 17.8802 41.8136 17.4833 42.3578 16.9611C42.9019 16.44 43.3232 15.8191 43.6239 15.0984L40.9455 14.2876C40.6826 14.85 40.3076 15.2798 39.8207 15.5756C39.3325 15.8727 38.7591 16.02 38.0992 16.02C37.4394 16.02 36.8368 15.8702 36.3607 15.5695C35.8847 15.2701 35.5268 14.8306 35.2858 14.2535C35.1226 13.8615 35.0204 13.4086 34.968 12.9034H43.7602C43.8576 11.4559 43.6945 10.191 43.2708 9.11114C42.8472 8.03128 42.191 7.19857 41.3022 6.61299V6.61421ZM36.379 8.56695C36.866 8.26381 37.4783 8.11163 38.2137 8.11163C38.8735 8.11163 39.4116 8.24677 39.828 8.51703C40.2443 8.7873 40.5535 9.20001 40.7556 9.75515C40.8701 10.0692 40.9529 10.4381 41.0052 10.8581H35.0325C35.0922 10.5173 35.175 10.2032 35.287 9.92437C35.5268 9.32418 35.8908 8.87252 36.379 8.56817V8.56695Z" fill="#010101"/>
<path d="M53.0223 6.07483L49.9727 14.8853L46.9121 6.07483H44.1997L48.6116 18.2271H51.335L55.7457 6.07483H53.0223Z" fill="#010101"/>
<path d="M62.3514 18.5644C63.1318 18.5644 63.8744 18.4268 64.5793 18.1541C65.2842 17.8802 65.9087 17.4833 66.4529 16.961C66.9971 16.44 67.4183 15.8191 67.719 15.0984L65.0407 14.2876C64.7777 14.85 64.4028 15.2798 63.9158 15.5756C63.4276 15.8727 62.8542 16.02 62.1944 16.02C61.5345 16.02 60.9319 15.8702 60.4559 15.5695C59.9799 15.2701 59.6208 14.8306 59.3809 14.2535C59.2178 13.8615 59.1155 13.4086 59.0632 12.9034H67.8542C67.9516 11.4559 67.7884 10.191 67.3648 9.11113C66.9411 8.03128 66.2849 7.19857 65.395 6.61299C64.5063 6.02741 63.4386 5.73523 62.1932 5.73523C60.9477 5.73523 59.9592 6.0055 59.0474 6.54481C58.1355 7.08535 57.4245 7.84867 56.9144 8.83478C56.4043 9.82089 56.1487 10.9713 56.1487 12.2837C56.1487 13.4987 56.4092 14.5846 56.9303 15.5415C57.4513 16.4984 58.1805 17.2411 59.1192 17.7694C60.0566 18.2978 61.134 18.5632 62.349 18.5632L62.3514 18.5644ZM60.4717 8.56573C60.9587 8.26259 61.5711 8.11041 62.3064 8.11041C62.9662 8.11041 63.5043 8.24555 63.9207 8.51581C64.337 8.78608 64.6463 9.19879 64.8496 9.75393C64.964 10.068 65.0468 10.4369 65.0979 10.8569H59.1253C59.1849 10.516 59.2677 10.2019 59.3797 9.92315C59.6195 9.32296 59.9835 8.8713 60.4717 8.56695V8.56573Z" fill="#010101"/>
<path d="M72.6435 2.02332H69.9311V18.2272H72.6435V2.02332Z" fill="#010101"/>
<path d="M86.897 12.151C86.897 10.9056 86.645 9.79776 86.1434 8.82626C85.6406 7.85476 84.9321 7.09753 84.0166 6.55334C83.1011 6.00915 82.0395 5.73767 80.8318 5.73767C79.6242 5.73767 78.6052 6.0055 77.686 6.54238C76.7669 7.07927 76.0547 7.83285 75.5482 8.80435C75.0418 9.77585 74.7886 10.8922 74.7886 12.1522C74.7886 13.4123 75.0381 14.5055 75.5373 15.477C76.0364 16.4485 76.7425 17.2058 77.658 17.7499C78.5735 18.2941 79.6315 18.5656 80.8318 18.5656C82.0322 18.5656 83.0901 18.2953 84.0056 17.756C84.9211 17.2155 85.6321 16.4607 86.1386 15.488C86.645 14.5165 86.8982 13.405 86.8982 12.151H86.897ZM83.6733 14.1817C83.4371 14.7636 83.0792 15.2153 82.5983 15.5379C82.1186 15.8605 81.5294 16.0212 80.8318 16.0212C80.1343 16.0212 79.5596 15.8654 79.0873 15.5537C78.6149 15.2421 78.2582 14.7965 78.0184 14.2146C77.7786 13.6338 77.658 12.9448 77.658 12.1498C77.658 11.3548 77.7725 10.6792 78.0013 10.1021C78.2302 9.52506 78.5808 9.07583 79.0532 8.75687C79.5255 8.43791 80.1184 8.27842 80.8306 8.27842C81.8654 8.27842 82.6568 8.62174 83.2046 9.30836C83.7524 9.99498 84.0263 10.9421 84.0263 12.1498C84.0263 12.9229 83.9083 13.5998 83.6721 14.1805L83.6733 14.1817Z" fill="#010101"/>
<path d="M98.3517 6.7554C97.6432 6.06878 96.6096 5.72546 95.2522 5.72546C94.1419 5.72546 93.1911 5.97138 92.3998 6.462C91.9688 6.72983 91.5963 7.05123 91.2797 7.42255V6.07365H88.8607V18.2271H91.606V11.9818C91.606 11.0517 91.7411 10.3127 92.0114 9.76486C92.2817 9.21702 92.625 8.83232 93.0413 8.61196C93.4577 8.39039 93.9288 8.27961 94.4535 8.27961C95.2485 8.27961 95.856 8.49874 96.276 8.93823C96.696 9.37772 96.9699 9.88295 97.0978 10.4576C97.2256 11.031 97.2889 11.6713 97.2889 12.3762V18.2271H100.034V11.4412C100.034 10.639 99.9307 9.82817 99.725 9.01006C99.5192 8.19317 99.0615 7.44081 98.3517 6.75418V6.7554Z" fill="#010101"/>
<path d="M117.813 3.45743C116.912 2.71846 115.84 2.27045 114.595 2.11218C114.092 2.05253 113.436 2.02209 112.626 2.02209H107.46V18.2259H112.626C113.443 18.2259 114.1 18.1955 114.595 18.1359C115.847 17.9788 116.922 17.5308 117.818 16.7906C118.714 16.0516 119.395 15.1045 119.861 13.9491C120.326 12.7938 120.559 11.518 120.559 10.1228C120.559 8.72764 120.326 7.45178 119.861 6.29645C119.396 5.14112 118.713 4.19397 117.813 3.455V3.45743ZM117.335 12.6063C117.099 13.3757 116.737 14.0246 116.249 14.553C115.761 15.0813 115.15 15.4137 114.414 15.5488C114.024 15.6316 113.428 15.673 112.625 15.673H110.217V4.57746H112.625C112.962 4.57746 113.283 4.58476 113.586 4.59937C113.89 4.61398 114.166 4.64807 114.413 4.70042C115.141 4.83555 115.749 5.16182 116.236 5.67922C116.723 6.19662 117.087 6.84064 117.328 7.60883C117.567 8.37824 117.688 9.21582 117.688 10.124C117.688 11.0322 117.57 11.8369 117.334 12.6051L117.335 12.6063Z" fill="#010101"/>
<path d="M125.595 6.07483H122.883V18.2283H125.595V6.07483Z" fill="#010101"/>
<path d="M125.595 1.74207H122.883V4.22925H125.595V1.74207Z" fill="#010101"/>
<path d="M136.755 6.95022C136.602 6.81265 136.442 6.68239 136.271 6.5643C135.476 6.01281 134.515 5.73767 133.39 5.73767C132.265 5.73767 131.274 6.01281 130.42 6.5643C129.564 7.11579 128.904 7.87668 128.439 8.84818C127.974 9.81968 127.741 10.9202 127.741 12.151C127.741 13.3818 127.97 14.4507 128.428 15.4259C128.886 16.401 129.537 17.168 130.381 17.7268C131.224 18.2856 132.195 18.5656 133.289 18.5656C134.384 18.5656 135.417 18.288 136.232 17.7329C136.295 17.6891 136.356 17.6428 136.417 17.5965V18.7689C136.431 19.3387 136.317 19.8196 136.073 20.2091C135.83 20.5987 135.49 20.8933 135.054 21.093C134.62 21.2914 134.113 21.3912 133.535 21.3912C133.04 21.3912 132.581 21.2805 132.157 21.0589C131.733 20.8373 131.412 20.5135 131.195 20.085L128.697 21.3231C129.169 22.1485 129.838 22.7949 130.7 23.2648C131.562 23.7336 132.504 23.9685 133.524 23.9685C134.95 23.9685 136.144 23.68 137.108 23.1017C138.072 22.5234 138.69 21.6652 138.959 20.5244C139.071 20.0521 139.128 19.4811 139.128 18.814V6.07611H136.754V6.95144L136.755 6.95022ZM135.439 15.645C134.989 15.9713 134.412 16.1344 133.706 16.1344C132.999 16.1344 132.449 15.9616 131.984 15.617C131.519 15.2725 131.175 14.7989 130.949 14.1987C130.724 13.5985 130.612 12.9156 130.612 12.151C130.612 11.3865 130.728 10.7145 130.962 10.1143C131.194 9.5141 131.548 9.03931 132.024 8.69113C132.5 8.34173 133.092 8.16764 133.797 8.16764C134.502 8.16764 135.029 8.33321 135.468 8.66313C135.907 8.99305 136.232 9.45445 136.442 10.0473C136.652 10.6402 136.758 11.3414 136.758 12.151C136.758 12.9606 136.651 13.6643 136.437 14.2608C136.223 14.8574 135.892 15.3188 135.442 15.645H135.439Z" fill="#010101"/>
<path d="M144.541 1.74207H141.828V4.22925H144.541V1.74207Z" fill="#010101"/>
<path d="M144.541 6.07483H141.828V18.2283H144.541V6.07483Z" fill="#010101"/>
<path d="M150.944 2.69897H148.244V6.07488H146.038V8.20171H148.244V13.7945C148.229 14.4921 148.248 15.0533 148.3 15.477C148.352 15.9007 148.487 16.3195 148.705 16.7322C149.149 17.5503 149.895 18.0677 150.944 18.2856C151.994 18.5035 153.183 18.484 154.511 18.2296V15.9567C153.641 16.0845 152.933 16.1088 152.391 16.0297C151.846 15.9506 151.447 15.7059 151.193 15.2932C151.072 15.1057 150.999 14.8756 150.973 14.6017C150.947 14.3278 150.938 13.9467 150.945 13.4597V8.20414H154.512V6.07731H150.945V2.70141L150.944 2.69897Z" fill="#010101"/>
<path d="M166.049 7.99841C165.666 7.22535 165.074 6.6556 164.271 6.28794C163.468 5.92028 162.501 5.73645 161.368 5.73645C159.98 5.73645 158.855 6.03837 157.992 6.64221C157.129 7.24605 156.544 8.0812 156.236 9.14644L158.711 9.92315C158.899 9.33757 159.236 8.90904 159.724 8.63512C160.211 8.3612 160.759 8.22485 161.368 8.22485C161.976 8.22485 162.451 8.31129 162.819 8.48416C163.187 8.65704 163.453 8.92244 163.618 9.28279C163.742 9.55428 163.82 9.88663 163.85 10.2774C163.81 10.2835 163.771 10.2896 163.73 10.2957C162.342 10.4905 161.272 10.6536 160.517 10.7851C159.763 10.9166 159.112 11.076 158.564 11.2635C157.611 11.5861 156.912 12.0475 156.465 12.6477C156.018 13.2479 155.796 13.9979 155.796 14.8987C155.796 15.5744 155.955 16.1916 156.274 16.7492C156.593 17.308 157.059 17.7512 157.675 18.0774C158.29 18.4037 159.022 18.5668 159.869 18.5668C160.596 18.5668 161.242 18.4767 161.805 18.2966C162.367 18.1164 162.868 17.8412 163.307 17.4699C163.597 17.224 163.872 16.9257 164.134 16.5837V18.2296H166.508V10.7693C166.508 10.1472 166.481 9.62732 166.429 9.21096C166.376 8.79461 166.248 8.39164 166.046 8.00085L166.049 7.99841ZM163.551 14.3899C163.446 14.7052 163.26 15.0168 162.994 15.3236C162.728 15.6316 162.376 15.8885 161.936 16.0942C161.498 16.3012 160.989 16.4035 160.412 16.4035C159.992 16.4035 159.635 16.3377 159.343 16.2063C159.051 16.0748 158.829 15.8934 158.68 15.6608C158.53 15.4283 158.454 15.1617 158.454 14.8622C158.454 14.48 158.579 14.1634 158.826 13.9114C159.073 13.6606 159.441 13.4439 159.929 13.265C160.318 13.1371 160.788 13.0215 161.335 12.9156C161.883 12.8109 162.663 12.6794 163.676 12.5211L163.818 12.498C163.815 12.8413 163.8 13.1676 163.771 13.4658C163.737 13.8104 163.664 14.1184 163.552 14.3886L163.551 14.3899Z" fill="#010101"/>
<path d="M171.81 2.02332H169.097V18.2272H171.81V2.02332Z" fill="#010101"/>
</svg>
